<?xml version="1.0" encoding="UTF-8"?>
<svg viewBox="-81 -66 140 140" xmlns="http://www.w3.org/2000/svg">
  <path d="M11.4,-25.3C17.1,-16.4,25.8,-18.1,35.9,-15.7C46,-13.2,57.6,-6.6,58.9,0.8C60.2,8.2,51.3,16.3,46.8,28.5C42.3,40.6,42.2,56.7,35.1,62.1C28,67.6,14,62.3,5.1,53.5C-3.8,44.7,-7.6,32.2,-18.7,29.1C-29.8,26,-48.2,32.2,-60.5,28.9C-72.7,25.6,-78.9,12.8,-80.3,-0.8C-81.7,-14.4,-78.3,-28.8,-67,-33.9C-55.8,-39,-36.7,-34.7,-24.2,-39.7C-11.7,-44.7,-5.8,-59,-1.5,-56.4C2.8,-53.8,5.7,-34.3,11.4,-25.3Z"/>
</svg>